<?xml version="1.0" encoding="utf-8"?>
<!-- Generator: Adobe Illustrator 25.4.1, SVG Export Plug-In . SVG Version: 6.00 Build 0)  -->
<svg version="1.1" id="Layer_1" xmlns="http://www.w3.org/2000/svg" xmlns:xlink="http://www.w3.org/1999/xlink" x="0px" y="0px"
	 viewBox="0 0 841.9 595.3" style="enable-background:new 0 0 841.9 595.3;" xml:space="preserve">
<style type="text/css">
	.st0{fill:#0A0305;}
</style>
<g>
	<path class="st0" d="M164.5,326.7c-8.2,0-15.7-1.3-22.6-4c-6.9-2.6-12.8-6.4-17.9-11.3c-5.1-4.9-9.1-10.6-11.8-17.1
		c-2.8-6.5-4.2-13.7-4.2-21.6s1.4-15.1,4.2-21.6c2.8-6.5,6.8-12.2,11.9-17.1c5.2-4.9,11.2-8.7,18-11.3c6.9-2.6,14.5-4,22.9-4
		c8.8,0,16.8,1.4,23.9,4.4c7.1,2.9,13.2,7.1,18.1,12.8l-12.3,12c-4.1-4.1-8.5-7.1-13.3-9.1c-4.8-1.9-10-2.9-15.7-2.9
		c-5.6,0-10.7,0.9-15.4,2.7c-4.6,1.8-8.7,4.4-12.1,7.6c-3.4,3.3-6.1,7.2-7.9,11.7c-1.9,4.5-2.8,9.5-2.8,14.9c0,5.3,1,10.2,2.8,14.8
		s4.6,8.5,7.9,11.8s7.4,5.9,12,7.6s9.7,2.7,15.3,2.7c5.2,0,10.2-0.8,15.1-2.5c4.9-1.6,9.5-4.4,13.9-8.3l10.9,14.5
		c-5.4,4.4-11.7,7.7-18.9,10C179.4,325.6,172,326.7,164.5,326.7z M187.2,310.8v-39.1h18.3v41.7L187.2,310.8z"/>
	<path class="st0" d="M265.5,326.3c-8.1,0-15.4-1.8-21.8-5.3c-6.4-3.5-11.5-8.4-15.2-14.6c-3.7-6.2-5.6-13.2-5.6-21.1
		c0-8.1,1.9-15.2,5.6-21.3c3.7-6.1,8.8-10.9,15.1-14.5c6.4-3.6,13.7-5.3,21.9-5.3c8.3,0,15.7,1.8,22.1,5.3
		c6.5,3.6,11.5,8.4,15.1,14.5s5.5,13.2,5.5,21.3c0,8-1.8,15.1-5.5,21.2c-3.6,6.1-8.7,11-15.2,14.5
		C281,324.5,273.7,326.3,265.5,326.3z M265.5,310.4c4.6,0,8.7-1,12.3-3.1c3.6-2,6.4-5,8.5-8.9c2-3.9,3.1-8.3,3.1-13.3
		c0-5.1-1-9.5-3.1-13.3c-2-3.8-4.9-6.6-8.5-8.7c-3.6-2-7.6-3.1-12.1-3.1s-8.5,1-12.1,3.1c-3.6,2-6.4,5-8.6,8.7s-3.1,8.2-3.1,13.3
		c0,5,1.1,9.4,3.1,13.3c2.1,3.9,4.9,6.8,8.6,8.9C257.1,309.4,261.1,310.4,265.5,310.4z"/>
	<path class="st0" d="M323.8,330.3c-1.2,0-1.8-0.6-1.8-2v-15.9c0-1.3,0.6-2,1.8-2h16c1.3,0,2,0.6,2,2v15.9c0,1.3-0.6,2-1.8,2H323.8z
		"/>
	<path class="st0" d="M384.3,325.2h-19.5v-105h76.6v16.5h-57.1V325.2z M382.8,268.7H435v16.2h-52.2V268.7z"/>
	<path class="st0" d="M492.3,326.3c-8.1,0-15.4-1.8-21.8-5.3c-6.5-3.5-11.5-8.4-15.2-14.6c-3.7-6.2-5.5-13.2-5.5-21.1
		c0-8.1,1.9-15.2,5.5-21.3c3.7-6.1,8.8-10.9,15.1-14.5c6.4-3.6,13.7-5.3,21.9-5.3c8.3,0,15.7,1.8,22.1,5.3
		c6.5,3.6,11.5,8.4,15.2,14.5s5.5,13.2,5.5,21.3c0,8-1.8,15.1-5.5,21.2c-3.7,6.1-8.7,11-15.2,14.5
		C507.8,324.5,500.5,326.3,492.3,326.3z M492.3,310.4c4.6,0,8.7-1,12.3-3.1c3.6-2,6.4-5,8.5-8.9c2-3.9,3.1-8.3,3.1-13.3
		c0-5.1-1-9.5-3.1-13.3c-2-3.8-4.9-6.6-8.5-8.7c-3.6-2-7.6-3.1-12.1-3.1s-8.5,1-12.1,3.1c-3.6,2-6.5,5-8.5,8.7
		c-2.1,3.8-3.1,8.2-3.1,13.3c0,5,1,9.4,3.1,13.3c2.1,3.9,5,6.8,8.5,8.9C483.9,309.4,487.9,310.4,492.3,310.4z"/>
	<path class="st0" d="M589,326.3c-8.1,0-15.4-1.8-21.8-5.3c-6.5-3.5-11.5-8.4-15.2-14.6c-3.7-6.2-5.5-13.2-5.5-21.1
		c0-8.1,1.8-15.2,5.5-21.3c3.7-6.1,8.8-10.9,15.2-14.5c6.4-3.6,13.7-5.3,21.9-5.3c8.3,0,15.7,1.8,22.1,5.3
		c6.5,3.6,11.5,8.4,15.2,14.5s5.5,13.2,5.5,21.3c0,8-1.8,15.1-5.5,21.2c-3.7,6.1-8.7,11-15.2,14.5
		C604.6,324.5,597.2,326.3,589,326.3z M589,310.4c4.6,0,8.7-1,12.3-3.1c3.6-2,6.4-5,8.5-8.9s3.1-8.3,3.1-13.3c0-5.1-1-9.5-3.1-13.3
		c-2-3.8-4.9-6.6-8.5-8.7c-3.6-2-7.7-3.1-12.2-3.1s-8.5,1-12.2,3.1c-3.6,2-6.5,5-8.5,8.7s-3.2,8.2-3.2,13.3c0,5,1,9.4,3.2,13.3
		c2.1,3.9,5,6.8,8.5,8.9C580.6,309.4,584.6,310.4,589,310.4z"/>
	<path class="st0" d="M683.7,326.3c-7.7,0-14.6-1.7-20.8-5.1c-6.2-3.4-11-8.2-14.5-14.3c-3.5-6.1-5.2-13.4-5.2-21.7
		c0-8.2,1.8-15.4,5.2-21.6s8.3-11,14.5-14.4c6.2-3.4,13.1-5.1,20.8-5.1c6.7,0,12.7,1.5,18,4.4c5.3,2.9,9.5,7.4,12.6,13.5
		c3.1,6,4.7,13.8,4.7,23.2c0,9.3-1.5,17-4.5,23.1s-7.1,10.6-12.4,13.6C696.8,324.8,690.7,326.3,683.7,326.3z M685.9,310.4
		c4.5,0,8.5-1,12.1-3.1c3.5-2,6.4-5,8.5-8.9c2.2-3.9,3.2-8.3,3.2-13.3c0-5.1-1.1-9.5-3.2-13.3c-2.2-3.8-5-6.6-8.5-8.7
		c-3.5-2-7.6-3.1-12.1-3.1s-8.5,1-12.1,3.1c-3.5,2-6.4,5-8.5,8.7c-2.2,3.8-3.2,8.2-3.2,13.3c0,5,1.1,9.4,3.2,13.3
		c2.2,3.9,5,6.8,8.5,8.9C677.4,309.4,681.4,310.4,685.9,310.4z M710.4,325.2v-18.9l0.5-21.3l-1.5-21.3v-49.8h18.9v111.3L710.4,325.2
		L710.4,325.2z"/>
</g>
</svg>
